<svg id="bf15e21b-49e9-4e37-81e1-0b86abb8f7a1" data-name="Layer 1" xmlns="http://www.w3.org/2000/svg" width="144" height="144" viewBox="0 0 144 144"><defs><style>.a30e41ba-2118-474f-b293-8a1b4949e9a2{fill:#010101;}</style></defs><title>accounting icon</title><path class="a30e41ba-2118-474f-b293-8a1b4949e9a2" d="M120.4,0H23.6A8.6,8.6,0,0,0,15,8.6V135.4a8.6,8.6,0,0,0,8.6,8.6h96.9a8.6,8.6,0,0,0,8.6-8.6V8.6A8.6,8.6,0,0,0,120.4,0ZM125,135.4a4.6,4.6,0,0,1-4.6,4.6H23.6a4.6,4.6,0,0,1-4.6-4.6V8.6A4.6,4.6,0,0,1,23.6,4h96.9A4.6,4.6,0,0,1,125,8.6V135.4Z"/><path class="a30e41ba-2118-474f-b293-8a1b4949e9a2" d="M114,10H28a2,2,0,0,0-2,2V35a2,2,0,0,0,2,2h86a2,2,0,0,0,2-2V12A2,2,0,0,0,114,10Zm-2,23H30V14h82V33Z"/><path class="a30e41ba-2118-474f-b293-8a1b4949e9a2" d="M114,43H28a2,2,0,0,0-2,2v86a2,2,0,0,0,2,2h86a2,2,0,0,0,2-2V45A2,2,0,0,0,114,43Zm-2,27H89V47h23V70Zm0,32H89V74h23v28ZM57,74H85v28H57V74Zm-4,28H31V74H53v28ZM85,48V70H57V48H85ZM53,47V70H30V47H53ZM30,106H53v23H30V106Zm27,23V106H85v23H57Zm32,0V106h23v23H89Z"/></svg>