<svg xmlns="http://www.w3.org/2000/svg" viewBox="0 0 250.23 321.73"><title>AddToHome</title><path d="M298.26,65.64H160.74A56.52,56.52,0,0,0,104.38,122V331a56.52,56.52,0,0,0,56.36,56.36H298.26A56.52,56.52,0,0,0,354.62,331V122A56.52,56.52,0,0,0,298.26,65.64Zm-6.64,310.77H167.38c-28.48,0-51.57-21.75-51.57-48.57V125.16c0-26.82,23.09-48.57,51.57-48.57H291.62c28.48,0,51.57,21.75,51.57,48.57V327.84C343.2,354.66,320.11,376.41,291.62,376.41Z" transform="translate(-104.38 -65.64)"/><rect x="222.69" y="156.6" width="13.62" height="138.08" transform="translate(-100.52 389.51) rotate(-90)"/><rect x="222.69" y="156.6" width="13.62" height="138.08" transform="translate(354.62 385.65) rotate(-180)"/></svg>