<svg xmlns="http://www.w3.org/2000/svg" width="144" height="144" viewBox="0 0 144 144"><defs><style>.a{fill:#010101;}</style></defs><title>test</title><path class="a" d="M79,100H47a2,2,0,0,1,0-4H79A2,2,0,0,1,79,100Z"/><path class="a" d="M15,100H2a2,2,0,0,1-2-2V22a2,2,0,0,1,2-2H95a2,2,0,0,1,2,2V87a2,2,0,0,1-4,0V24H4V96H15A2,2,0,0,1,15,100Z"/><path class="a" d="M142,100H112a2,2,0,0,1,0-4h27.51L127.57,42H95a2,2,0,0,1,0-4h34.17a2,2,0,0,1,2,1.57l12.83,58A2,2,0,0,1,142,100Z"/><path class="a" d="M31.19,123.63a19.16,19.16,0,1,1,19.16-19.16A19.18,19.18,0,0,1,31.19,123.63Zm0-34.32a15.16,15.16,0,1,0,15.16,15.16A15.18,15.18,0,0,0,31.19,89.31Z"/><path class="a" d="M95.09,123.63a19.17,19.17,0,1,1,19.16-19.16A19.18,19.18,0,0,1,95.09,123.63Zm0-34.32A15.14,15.14,0,1,0,109.21,99,15.18,15.18,0,0,0,95.09,89.31Z"/><path class="a" d="M132,68H95a2,2,0,0,1,0-4h37A2,2,0,0,1,132,68Z"/></svg>