<?xml version="1.0" encoding="utf-8"?>
<!-- Generator: Adobe Illustrator 21.0.0, SVG Export Plug-In . SVG Version: 6.00 Build 0)  -->
<svg version="1.1" id="Layer_1" xmlns="http://www.w3.org/2000/svg" xmlns:xlink="http://www.w3.org/1999/xlink" x="0px" y="0px"
	 viewBox="0 0 72 72" style="enable-background:new 0 0 72 72;" xml:space="preserve">
<style type="text/css">
	.st0{fill:#010101;}
</style>
<g>
	<g>
		<path class="st0" d="M33.4,60.4c-0.3,0-0.5-0.1-0.7-0.3L9.3,36.7C9.1,36.5,9,36.3,9,36s0.1-0.5,0.3-0.7l23.4-23.4
			c0.4-0.4,1-0.4,1.4,0s0.4,1,0,1.4L11.4,36l22.7,22.7c0.4,0.4,0.4,1,0,1.4C33.9,60.3,33.6,60.4,33.4,60.4z"/>
	</g>
	<g>
		<path class="st0" d="M62,37H10c-0.6,0-1-0.4-1-1s0.4-1,1-1h52c0.6,0,1,0.4,1,1S62.6,37,62,37z"/>
	</g>
</g>
</svg>
