<svg xmlns="http://www.w3.org/2000/svg" width="144" height="144" viewBox="0 0 144 144"><defs><style>.a{fill:#010101;}</style></defs><title>test-06a</title><path d="M113,103H2a2,2,0,0,1-2-2V14a2,2,0,0,1,2-2H113a2,2,0,0,1,2,2v87A2,2,0,0,1,113,103ZM4,99H111V16H4V99Z"/><path d="M142,132H31a2,2,0,0,1-2-2V114a2,2,0,0,1,4,0v14H140V45H124a2,2,0,0,1,0-4h18a2,2,0,0,1,2,2v87A2,2,0,0,1,142,132Z"/><path class="a" d="M65,65.24a5.83,5.83,0,0,0-2-4.53q-2-1.82-7.23-3.07a23.92,23.92,0,0,1-9.8-4.42,9.13,9.13,0,0,1-3.52-7.33,9.61,9.61,0,0,1,3.79-7.74A15,15,0,0,1,56,35.06q6.5,0,10.34,3.56a10.51,10.51,0,0,1,3.71,8.26L70,47H64.92a7.34,7.34,0,0,0-2.3-5.63q-2.3-2.15-6.59-2.15a9.23,9.23,0,0,0-6.13,1.81,5.89,5.89,0,0,0-2.13,4.72,5.19,5.19,0,0,0,2.31,4.31,21.91,21.91,0,0,0,7.5,3q6.25,1.55,9.51,4.57a9.77,9.77,0,0,1,3.26,7.48,9.13,9.13,0,0,1-3.91,7.69q-3.91,2.91-10.22,2.91a17.69,17.69,0,0,1-10.48-3.22A9.71,9.71,0,0,1,41.32,64l0.05-.16h5.11a6.65,6.65,0,0,0,2.8,5.79,11.68,11.68,0,0,0,6.93,2,10.79,10.79,0,0,0,6.42-1.7A5.4,5.4,0,0,0,65,65.24Z"/><rect x="54" y="28" width="4" height="8"/><rect x="54" y="75" width="4" height="9"/></svg>